<svg width="141" height="52" viewBox="0 0 141 52" fill="none" xmlns="http://www.w3.org/2000/svg">
<g clip-path="url(#clip0_7_241)">
<path d="M13.9135 36.3452C13.3686 35.02 12.4421 33.8867 11.2517 33.0891C10.0614 32.2915 8.66085 31.8657 7.228 31.8657C5.79514 31.8657 4.39461 32.2915 3.20425 33.0891C2.01389 33.8867 1.08742 35.02 0.542484 36.3452C0.181606 37.2314 -0.00267324 38.1795 -1.88554e-06 39.1364V51.466H1.85443V43.9723L1.84319 39.6648C1.84319 39.4912 1.83475 39.3275 1.83475 39.1525C1.82974 37.8022 2.32978 36.4989 3.23665 35.4985C3.29989 35.4282 3.36313 35.3579 3.42918 35.294C3.9202 34.8032 4.50019 34.4104 5.13816 34.1366C5.79974 33.8568 6.51074 33.7126 7.22905 33.7126C7.94736 33.7126 8.65836 33.8568 9.31994 34.1366C9.95772 34.4104 10.5375 34.8032 11.0282 35.294C11.0943 35.36 11.1575 35.4282 11.2201 35.4971C12.1427 36.5084 12.6477 37.8319 12.6333 39.2008C12.6189 40.5697 12.0862 41.8822 11.1424 42.8739C10.1987 43.8656 8.9141 44.4627 7.54758 44.5449C6.18107 44.6271 4.83421 44.1882 3.77843 43.3167V45.5071C3.99486 45.6256 4.21855 45.7338 4.44951 45.8317C5.32991 46.2 6.27472 46.3897 7.22905 46.3897C8.18338 46.3897 9.12819 46.2 10.0086 45.8317C10.8804 45.4655 11.6724 44.9328 12.3402 44.2633C13.6973 42.9011 14.4591 41.0564 14.4588 39.1335C14.4619 38.1764 14.2766 37.2281 13.9135 36.3425" fill="white"/>
<path d="M28.0385 43.7728C27.2092 44.2777 26.2548 44.5399 25.2839 44.5297C24.5692 44.5359 23.8612 44.3922 23.2053 44.108C21.9313 43.556 20.9109 42.5459 20.3461 41.2775C20.054 40.6208 19.9054 39.9093 19.9104 39.1905H32.5119C32.5142 38.2253 32.33 37.2687 31.9695 36.3733C31.6169 35.4829 31.0797 34.6773 30.3933 34.0094C29.7238 33.3306 28.9282 32.789 28.0512 32.415C27.1763 32.0415 26.2345 31.8503 25.2832 31.8529C24.328 31.8514 23.3823 32.0425 22.5026 32.415C21.6262 32.7829 20.8339 33.3254 20.1739 34.0094C19.4929 34.6717 18.9562 35.4677 18.5977 36.3474C18.237 37.2336 18.0528 38.1817 18.0552 39.1385C18.0547 40.5688 18.4765 41.9673 19.2676 43.1587C20.0588 44.3502 21.1842 45.2815 22.5026 45.8359C23.3825 46.2071 24.3283 46.3969 25.2832 46.3939C26.2342 46.3979 27.176 46.2081 28.0512 45.8359C28.9227 45.4634 29.717 44.9315 30.3933 44.2675C31.1064 43.5564 31.6659 42.7064 32.0369 41.7701H29.971C29.5157 42.5982 28.8486 43.2903 28.0378 43.7757M20.9946 35.8681C21.3235 35.4311 21.7165 35.0464 22.1604 34.7269C22.6043 34.4055 23.0952 34.1547 23.6157 33.9835C24.1531 33.8043 24.7161 33.7141 25.2825 33.7164C26.4028 33.7023 27.4965 34.0574 28.3948 34.7269C29.2894 35.3813 29.9672 36.2889 30.3406 37.3325H20.1999C20.39 36.8074 20.6582 36.314 20.9953 35.8688" fill="white"/>
<path d="M63.6712 43.7728C62.8418 44.2778 61.8875 44.54 60.9166 44.5297C60.2016 44.5359 59.4933 44.3922 58.8373 44.108C57.5634 43.556 56.5432 42.5459 55.9787 41.2775C55.6866 40.6208 55.538 39.9093 55.543 39.1905H68.1446C68.1466 38.2252 67.9622 37.2687 67.6014 36.3733C67.2492 35.4829 66.7122 34.6772 66.0259 34.0094C65.3564 33.3306 64.5608 32.789 63.6838 32.415C62.8089 32.0415 61.8671 31.8503 60.9159 31.8529C59.9606 31.8514 59.0149 32.0425 58.1353 32.415C57.2586 32.7829 56.4661 33.3254 55.8058 34.0094C55.1251 34.6718 54.5887 35.4678 54.2304 36.3474C53.8695 37.2335 53.6852 38.1817 53.6879 39.1385C53.6873 40.5688 54.1091 41.9673 54.9003 43.1587C55.6915 44.3502 56.8169 45.2815 58.1353 45.8359C59.0152 46.2071 59.9609 46.3969 60.9159 46.3939C61.8669 46.3979 62.8087 46.2081 63.6838 45.8359C64.5553 45.4634 65.3496 44.9315 66.0259 44.2675C66.739 43.5563 67.2984 42.7064 67.6695 41.7701H65.6036C65.1483 42.5981 64.4812 43.2903 63.6705 43.7757M56.6273 35.8681C56.9564 35.4311 57.3496 35.0463 57.7938 34.7269C58.2375 34.4054 58.7285 34.1546 59.2491 33.9835C59.7864 33.8043 60.3494 33.7141 60.9159 33.7164C62.0359 33.7024 63.1294 34.0575 64.0274 34.7269C64.9221 35.3812 65.6 36.2889 65.9732 37.3325H55.8325C56.0225 36.8074 56.2907 36.3139 56.628 35.8688" fill="white"/>
<path d="M99.7782 43.7728C98.9488 44.2778 97.9945 44.54 97.0236 44.5297C96.3086 44.5359 95.6003 44.3922 94.9443 44.108C93.6704 43.556 92.6502 42.5458 92.0857 41.2775C91.7936 40.6208 91.645 39.9093 91.65 39.1905H104.252C104.254 38.2252 104.069 37.2686 103.708 36.3733C103.356 35.4829 102.819 34.6772 102.133 34.0094C101.463 33.3306 100.668 32.789 99.7908 32.415C98.9159 32.0415 97.9741 31.8503 97.0229 31.8529C96.0676 31.8514 95.1219 32.0425 94.2423 32.415C93.3656 32.7829 92.573 33.3254 91.9128 34.0094C91.232 34.6718 90.6956 35.4678 90.3373 36.3474C89.9765 37.2335 89.7922 38.1817 89.7949 39.1385C89.7943 40.5688 90.2161 41.9673 91.0073 43.1587C91.7985 44.3502 92.9238 45.2815 94.2423 45.8359C95.1221 46.2071 96.0679 46.3969 97.0229 46.3939C97.9738 46.3979 98.9156 46.2081 99.7908 45.8359C100.662 45.4634 101.457 44.9315 102.133 44.2675C102.846 43.5563 103.405 42.7063 103.777 41.7701H101.711C101.255 42.5981 100.588 43.2903 99.7775 43.7757M92.7343 35.8681C93.0633 35.4311 93.4566 35.0463 93.9007 34.7269C94.3445 34.4054 94.8355 34.1546 95.3561 33.9835C95.8934 33.8043 96.4564 33.7141 97.0229 33.7164C98.1429 33.7024 99.2364 34.0575 100.134 34.7269C101.029 35.3812 101.707 36.2889 102.08 37.3325H91.9395C92.1295 36.8074 92.3977 36.3139 92.735 35.8688" fill="white"/>
<path d="M46.0931 43.8895C45.3684 44.321 44.5523 44.5759 43.7109 44.6336C42.8694 44.6914 42.0262 44.5503 41.2493 44.2218C40.6108 43.9493 40.0306 43.5567 39.5404 43.0652C39.0515 42.5721 38.6603 41.9911 38.3872 41.3527C38.1045 40.689 37.961 39.9744 37.9656 39.253C37.9612 38.5276 38.1047 37.8089 38.3872 37.1407C38.9274 35.8419 39.9544 34.806 41.2486 34.2547C42.0255 33.9265 42.8687 33.7856 43.7101 33.8433C44.5515 33.901 45.3676 34.1559 46.0924 34.5871C46.9033 35.0734 47.5705 35.7665 48.0255 36.5954H50.0914C49.7227 35.6578 49.163 34.8071 48.4478 34.0973C47.7782 33.4235 46.9821 32.8886 46.1051 32.5233C45.2282 32.1581 44.2877 31.9696 43.3378 31.9689C42.3832 31.967 41.4381 32.1581 40.5593 32.531C38.7883 33.2745 37.3842 34.6895 36.6544 36.4661C36.2914 37.3517 36.1061 38.3001 36.1091 39.2573C36.108 40.2049 36.2933 41.1435 36.6544 42.0196C37.0151 42.9058 37.5502 43.7106 38.2277 44.3862C38.8955 45.0557 39.6875 45.5885 40.5593 45.9547C41.4398 46.3227 42.3845 46.5122 43.3388 46.5122C44.2931 46.5122 45.2379 46.3227 46.1184 45.9547C46.9899 45.5892 47.7813 45.0563 48.4478 44.3862C49.1618 43.6758 49.7214 42.8256 50.0914 41.8889H48.0255C47.5702 42.7168 46.903 43.4089 46.0924 43.8944" fill="white"/>
<path d="M78.9704 46.3911C78.0155 46.3943 77.0698 46.2048 76.1898 45.8338C75.3187 45.4676 74.5274 44.9348 73.8604 44.2654C73.1872 43.5917 72.6536 42.7919 72.2902 41.9116C71.9268 41.0313 71.7406 40.088 71.7424 39.1357C71.7384 38.1787 71.9227 37.2303 72.2849 36.3445C73.0165 34.5691 74.4201 33.1547 76.1898 32.4094L76.265 32.3806C76.4449 32.3103 76.6276 32.2401 76.8131 32.1817C77.5107 31.9601 78.2384 31.8478 78.9704 31.8487C79.0667 31.8487 79.1637 31.862 79.2599 31.8641C79.3253 31.8697 79.3899 31.8725 79.4525 31.8774C79.593 31.8851 79.7336 31.8978 79.8776 31.9189C80.0217 31.94 80.1587 31.9583 80.2992 31.9843C80.3512 31.9948 80.4004 31.9976 80.4531 32.0081C80.5417 32.0264 80.6253 32.0552 80.7138 32.0784C80.7792 32.0945 80.8438 32.11 80.9092 32.1283C81.2581 32.2167 81.6007 32.3288 81.9344 32.4635C82.41 32.6577 82.8587 32.9119 83.2696 33.2203C83.6629 33.5127 84.0157 33.8561 84.3187 34.2413L84.3447 34.275C85.001 35.0059 85.5029 35.8618 85.8204 36.7914C86.033 37.417 86.1586 38.0689 86.1935 38.7288V44.7397C86.1978 45.6967 86.0134 46.6451 85.651 47.5308C84.9045 49.2927 83.5051 50.6973 81.7461 51.4505C80.8645 51.8147 79.9194 52.0008 78.9655 51.9979C78.0151 52.0012 77.0736 51.8148 76.1962 51.4497C75.3187 51.0846 74.5229 50.5481 73.8555 49.8716C73.6798 49.7137 73.52 49.5391 73.3783 49.3501V49.3445L73.3629 49.3185L74.8835 48.2645C75.3019 48.7581 75.8064 49.1717 76.3725 49.485C77.0874 49.8705 77.8794 50.091 78.6906 50.1304C79.5018 50.1698 80.3115 50.0272 81.0603 49.7128C81.6977 49.4385 82.2774 49.0457 82.7685 48.5554C83.2581 48.0626 83.6486 47.4806 83.9188 46.8408C84.2045 46.1779 84.3493 45.4629 84.344 44.7411V43.9681L84.3489 39.4757C84.3566 39.3584 84.3559 39.2376 84.3559 39.1181C84.3565 38.0245 84.0257 36.9565 83.4072 36.0547C82.7886 35.1529 81.9113 34.4596 80.8909 34.0663C79.6654 33.5968 78.3106 33.5916 77.0816 34.0516C76.0523 34.4405 75.1658 35.1337 74.5402 36.0388C73.9146 36.944 73.5795 38.0181 73.5795 39.1185C73.5795 40.2188 73.9146 41.2929 74.5402 42.1981C75.1658 43.1032 76.0523 43.7964 77.0816 44.1853C78.3091 44.6442 79.662 44.6389 80.886 44.1705C81.3994 43.9735 81.8796 43.6988 82.3097 43.3561V45.5345C82.1319 45.6307 81.9534 45.72 81.7714 45.798C80.8865 46.1855 79.9308 46.3853 78.9648 46.3847" fill="white"/>
<path d="M134.174 4.24783C138.32 8.18297 140.897 14.3717 140.498 19.4627C140.011 25.6985 135.088 30.1551 128.041 27.4139C126.574 26.8304 125.202 26.0297 123.973 25.0387L124.903 22.3171C126.034 23.39 127.336 24.267 128.755 24.9122C134.622 27.5122 138.977 24.057 139.498 18.7116C139.933 14.2396 137.64 8.72687 133.927 5.30892C129.5 1.23325 123.386 0.421657 120.586 5.18317L120.552 5.24356L116.531 12.0773L109.813 23.4942L107.846 18.7243L118.123 3.51211L118.137 3.49032C121.787 -1.91276 129.099 -0.559355 134.171 4.24783H134.174ZM125.05 14.4188L121.308 23.9622L117.135 25.8356L124.95 8.38188C126.408 5.12836 130.198 5.17545 133.224 7.75929C135.903 10.0466 137.53 13.9613 137.08 17.0406C136.572 20.5239 133.528 22.2947 129.895 20.3131C128.593 19.5762 127.469 18.561 126.605 17.3399L127.422 14.9508C128.089 16.3417 129.138 17.5136 130.448 18.3293C133.088 19.8921 135.423 18.746 135.868 16.1566C136.273 13.8011 135.007 10.7542 132.908 9.03114C130.604 7.13876 127.853 7.27442 126.886 9.7395L125.049 14.4216L125.05 14.4188ZM121.738 6.08891L121.749 6.06712C124.158 1.67383 129.649 2.23669 133.73 5.92096C137.197 9.0522 139.328 14.1763 138.877 18.3019C138.343 23.1667 134.304 26.1384 129.039 23.6593C127.665 22.9961 126.419 22.0976 125.355 21.0045L126.198 18.5451C127.147 19.7348 128.327 20.7199 129.668 21.4409C133.86 23.6242 137.261 21.4626 137.785 17.4902C138.241 14.0315 136.428 9.6706 133.459 7.08043C130.055 4.10941 125.683 3.90984 123.923 7.57795C123.915 7.59482 123.908 7.61237 123.899 7.62993L121.121 13.4202L114.622 26.9683L111.777 28.2458L110.84 25.9712L121.743 6.09037L121.738 6.08891Z" fill="white"/>
</g>
<defs>
<clipPath id="clip0_7_241">
<rect width="140.541" height="52" fill="white"/>
</clipPath>
</defs>
</svg>
